<?xml version="1.0" encoding="UTF-8"?>
<svg id="Calque_1" data-name="Calque 1" xmlns="http://www.w3.org/2000/svg" xmlns:xlink="http://www.w3.org/1999/xlink" viewBox="0 0 61.83 39.58">
  <defs>
    <style>
      .cls-1 {
        fill: #4f4d56;
      }

      .cls-1, .cls-2, .cls-3, .cls-4, .cls-5, .cls-6, .cls-7, .cls-8, .cls-9 {
        stroke-width: 0px;
      }

      .cls-2 {
        fill: #e55710;
      }

      .cls-4 {
        fill: #072a66;
      }

      .cls-5 {
        fill: #b7b7b7;
      }

      .cls-6 {
        fill: none;
      }

      .cls-7 {
        fill: #9b0b0b;
      }

      .cls-8 {
        fill: #8e4125;
      }

      .cls-9 {
        fill: #e8a623;
      }

      .cls-10 {
        clip-path: url(#clippath);
      }
    </style>
    <clipPath id="clippath">
      <path class="cls-6" d="m57.13,10.22c-3.03-3.54-7.24-5.9-11.83-6.63L23.38.13c-.59-.08-1.18-.13-1.77-.13-3.43,0-6.63,1.56-8.75,4.29-2.12,2.71-2.87,6.2-2.04,9.52l2.63,10.6.86,3.51c1.42,5.71,6.52,9.71,12.42,9.71h23.56c6.36,0,11.54-5.18,11.54-11.51v-3.17c0-4.7-1.69-9.2-4.7-12.74Z"/>
    </clipPath>
  </defs>
  <g class="cls-10">
    <g>
      <rect class="cls-5" x="10.26" y=".22" width="7.43" height="39"/>
      <rect class="cls-1" x="17.69" y=".22" width="7.43" height="39"/>
      <rect class="cls-9" x="25.12" y=".22" width="7.43" height="39"/>
      <rect class="cls-8" x="32.55" y=".22" width="7.43" height="39"/>
      <rect class="cls-2" x="39.98" y=".22" width="7.43" height="39"/>
      <rect class="cls-7" x="47.41" y=".22" width="7.43" height="39"/>
      <rect class="cls-4" x="54.83" y=".22" width="7.43" height="39"/>
    </g>
  </g>
  <g id="g4488">
    <g id="path4490">
      <polygon class="cls-3" points="9.74 39.58 3.7 39.58 0 22.47 6.06 22.47 6.57 24.85 6.6 24.93 9.6 38.83 9.6 38.94 9.74 39.58"/>
    </g>
  </g>
  <path class="cls-3" d="m19.14,37.64h-7.67l-2.58-11.91h2.74l.67,2.71c.99,3.94,3.51,7.22,6.84,9.2Z"/>
</svg>