<?xml version="1.0" encoding="UTF-8"?>
<svg id="Calque_1" data-name="Calque 1" xmlns="http://www.w3.org/2000/svg" viewBox="0 0 61.83 39.58">
  <defs>
    <style>
      .cls-1 {
        stroke-width: 0px;
      }
    </style>
  </defs>
  <g id="_3068_-_Side_Mirror" data-name="3068 - Side Mirror">
    <g id="g4470">
      <g id="g4480">
        <g id="g4482">
          <g id="g4488">
            <g id="path4490">
              <polygon class="cls-1" points="9.74 39.58 3.7 39.58 0 22.47 6.06 22.47 6.57 24.85 6.6 24.93 9.6 38.83 9.6 38.94 9.74 39.58"/>
            </g>
          </g>
          <g id="g4492">
            <g id="path4494">
              <path class="cls-1" d="m19.14,37.64h-7.67l-2.58-11.91h2.74l.67,2.71c.99,3.94,3.51,7.22,6.84,9.2Z"/>
              <path class="cls-1" d="m30.26,37.64h20.03c6.36,0,11.54-5.18,11.54-11.51v-3.17c0-4.7-.56-6.21-3.56-9.75-3.03-3.54-9.41-6.28-14-7C31.23,4.84.26,2.22.26,2.22c0,0,9.56,10.6,12,20,4,11,10,15.42,18,15.42Z"/>
            </g>
          </g>
        </g>
      </g>
    </g>
  </g>
</svg>