<?xml version="1.0" encoding="UTF-8"?>
<svg id="Calque_1" data-name="Calque 1" xmlns="http://www.w3.org/2000/svg" xmlns:xlink="http://www.w3.org/1999/xlink" viewBox="0 0 61.83 39.58">
  <defs>
    <style>
      .cls-1, .cls-2, .cls-3 {
        stroke-width: 0px;
      }

      .cls-2 {
        fill: url(#Dégradé_sans_nom_8);
      }

      .cls-3 {
        fill: #fff;
      }
    </style>
    <linearGradient id="Dégradé_sans_nom_8" data-name="Dégradé sans nom 8" x1="13.27" y1="18.22" x2="56.79" y2="18.22" gradientUnits="userSpaceOnUse">
      <stop offset="0" stop-color="#d9bc6f"/>
      <stop offset=".98" stop-color="#a1813f"/>
    </linearGradient>
  </defs>
  <g>
    <g id="_3068_-_Side_Mirror" data-name="3068 - Side Mirror">
      <g id="g4470">
        <g id="g4480">
          <g id="g4482">
            <g id="g4488">
              <g id="path4490">
                <polygon class="cls-1" points="9.44 38.36 3.59 38.36 0 21.77 5.88 21.77 6.37 24.08 6.4 24.16 9.31 37.63 9.31 37.73 9.44 38.36"/>
              </g>
            </g>
            <g id="g4492">
              <g id="path4494">
                <path class="cls-1" d="m18.55,36.48h-7.44l-2.5-11.54h2.65l.65,2.63c.96,3.82,3.41,6.99,6.63,8.92Z"/>
                <path class="cls-1" d="m55.36,9.91c-2.94-3.43-7.02-5.72-11.47-6.42L22.66.13c-.57-.08-1.14-.13-1.72-.13-3.33,0-6.42,1.51-8.48,4.16-2.05,2.63-2.78,6.01-1.98,9.23l2.55,10.27.83,3.41c1.38,5.54,6.32,9.41,12.04,9.41h22.83c6.16,0,11.18-5.02,11.18-11.15v-3.07c0-4.55-1.64-8.92-4.55-12.35Zm1.43,15.39c0,4.45-3.61,8.06-8.06,8.06h-22.83c-4.26,0-8.01-2.91-9.02-7.07l-3.38-13.68c-1.33-5.33,3.22-10.3,8.66-9.44l21.21,3.35c7.72,1.22,13.39,7.88,13.39,15.68l.03,3.09h0Z"/>
              </g>
            </g>
          </g>
        </g>
      </g>
    </g>
    <path class="cls-2" d="m56.79,25.3h0c0,4.45-3.61,8.06-8.06,8.06h-22.83c-4.26,0-8.01-2.91-9.02-7.07l-3.38-13.68c-1.33-5.33,3.22-10.3,8.66-9.44l21.21,3.35c7.72,1.22,13.39,7.88,13.39,15.68l.03,3.09"/>
  </g>
  <g>
    <circle class="cls-1" cx="52.46" cy="35.5" r="3.45"/>
    <circle class="cls-3" cx="52.46" cy="35.5" r="1.71"/>
    <path class="cls-1" d="m52.46,34.64c-.47,0-.85.38-.85.85s.38.85.85.85.85-.38.85-.85-.38-.85-.85-.85h0Z"/>
  </g>
  <path class="cls-2" d="m56.79,25.3h0c0,4.45-3.61,8.06-8.06,8.06h-22.83c-4.26,0-8.01-2.91-9.02-7.07l-3.38-13.68c-1.33-5.33,3.22-10.3,8.66-9.44l21.21,3.35c7.72,1.22,13.39,7.88,13.39,15.68l.03,3.09"/>
</svg>