<?xml version="1.0" encoding="UTF-8"?>
<svg xmlns="http://www.w3.org/2000/svg" xmlns:xlink="http://www.w3.org/1999/xlink" viewBox="0 0 61.83 39.58">
  <defs>
    <style>
      .cls-1 {
        fill: url(#linear-gradient-38);
      }

      .cls-1, .cls-2, .cls-3, .cls-4, .cls-5, .cls-6, .cls-7, .cls-8, .cls-9, .cls-10, .cls-11, .cls-12, .cls-13, .cls-14, .cls-15, .cls-16, .cls-17, .cls-18, .cls-19, .cls-20, .cls-21, .cls-22, .cls-23, .cls-24, .cls-25, .cls-26, .cls-27, .cls-28, .cls-29, .cls-30, .cls-31, .cls-32, .cls-33, .cls-34, .cls-35, .cls-36, .cls-37, .cls-38, .cls-39, .cls-40, .cls-41, .cls-42, .cls-43, .cls-44, .cls-45, .cls-46, .cls-47, .cls-48 {
        stroke-width: 0px;
      }

      .cls-2 {
        fill: url(#linear-gradient-12);
      }

      .cls-3 {
        fill: url(#linear-gradient-17);
      }

      .cls-4 {
        fill: url(#linear-gradient-19);
      }

      .cls-5 {
        fill: url(#linear-gradient-33);
      }

      .cls-6 {
        fill: url(#linear-gradient);
      }

      .cls-7 {
        fill: url(#linear-gradient-21);
      }

      .cls-8 {
        fill: url(#linear-gradient-6);
      }

      .cls-49 {
        clip-path: url(#clippath-2);
      }

      .cls-50 {
        isolation: isolate;
      }

      .cls-9 {
        fill: url(#linear-gradient-42);
      }

      .cls-11 {
        fill: url(#linear-gradient-15);
      }

      .cls-12 {
        fill: url(#linear-gradient-11);
      }

      .cls-13 {
        fill: url(#linear-gradient-5);
      }

      .cls-14 {
        fill: none;
      }

      .cls-15 {
        fill: url(#linear-gradient-31);
      }

      .cls-16 {
        fill: url(#linear-gradient-34);
      }

      .cls-51 {
        clip-path: url(#clippath-1);
      }

      .cls-17 {
        fill: url(#linear-gradient-41);
      }

      .cls-18 {
        fill: url(#linear-gradient-40);
      }

      .cls-19 {
        fill: url(#linear-gradient-13);
      }

      .cls-20 {
        fill: url(#linear-gradient-23);
      }

      .cls-21 {
        fill: url(#linear-gradient-25);
      }

      .cls-22 {
        fill: url(#linear-gradient-43);
      }

      .cls-23 {
        fill: url(#linear-gradient-16);
      }

      .cls-24 {
        fill: url(#linear-gradient-22);
      }

      .cls-25 {
        fill: url(#linear-gradient-35);
      }

      .cls-26 {
        fill: url(#linear-gradient-32);
      }

      .cls-27 {
        fill: url(#linear-gradient-20);
      }

      .cls-28 {
        fill: url(#linear-gradient-14);
      }

      .cls-29 {
        fill: url(#linear-gradient-2);
      }

      .cls-30 {
        fill: url(#linear-gradient-7);
      }

      .cls-31 {
        fill: url(#linear-gradient-39);
      }

      .cls-32 {
        fill: url(#linear-gradient-3);
      }

      .cls-52 {
        clip-path: url(#clippath);
      }

      .cls-33 {
        fill: url(#linear-gradient-9);
      }

      .cls-34 {
        fill: url(#linear-gradient-27);
      }

      .cls-35 {
        fill: url(#linear-gradient-36);
      }

      .cls-36 {
        fill: url(#linear-gradient-8);
      }

      .cls-37 {
        fill: url(#linear-gradient-24);
      }

      .cls-38 {
        fill: url(#linear-gradient-26);
      }

      .cls-39 {
        fill: url(#linear-gradient-18);
      }

      .cls-40 {
        fill: url(#linear-gradient-30);
      }

      .cls-41 {
        fill: url(#linear-gradient-44);
      }

      .cls-42 {
        fill: url(#linear-gradient-29);
      }

      .cls-43 {
        fill: url(#Dégradé_sans_nom_3);
        mix-blend-mode: multiply;
        opacity: .23;
      }

      .cls-44 {
        fill: url(#linear-gradient-28);
      }

      .cls-45 {
        fill: url(#linear-gradient-10);
      }

      .cls-46 {
        fill: url(#linear-gradient-4);
      }

      .cls-47 {
        fill: url(#linear-gradient-37);
      }

      .cls-48 {
        fill: url(#Dégradé_sans_nom_31);
      }
    </style>
    <clipPath id="clippath">
      <path class="cls-14" d="m57.13-42.78c-3.03-3.54-7.24-5.9-11.83-6.63l-21.92-3.46c-.59-.08-1.18-.13-1.77-.13-3.43,0-6.63,1.56-8.75,4.29-2.12,2.71-2.87,6.2-2.04,9.52l2.63,10.6.86,3.51c1.42,5.71,6.52,9.71,12.42,9.71h23.56c6.36,0,11.54-5.18,11.54-11.51v-3.17c0-4.7-1.69-9.2-4.7-12.74Z"/>
    </clipPath>
    <clipPath id="clippath-1">
      <rect class="cls-14" x="4.43" y="-63.78" width="60.84" height="60.84"/>
    </clipPath>
    <linearGradient id="linear-gradient" x1="4.61" y1="-1.18" x2="4.58" y2=".53" gradientUnits="userSpaceOnUse">
      <stop offset=".3" stop-color="gray"/>
      <stop offset=".67" stop-color="#404040"/>
      <stop offset="1" stop-color="#000"/>
    </linearGradient>
    <linearGradient id="linear-gradient-2" x1="5.92" y1="-1.18" x2="5.89" y2=".53" xlink:href="#linear-gradient"/>
    <linearGradient id="linear-gradient-3" x1="7.23" y1="-1.18" x2="7.2" y2=".53" xlink:href="#linear-gradient"/>
    <linearGradient id="linear-gradient-4" x1="8.55" y1="-1.18" x2="8.51" y2=".53" xlink:href="#linear-gradient"/>
    <linearGradient id="linear-gradient-5" x1="9.86" y1="-1.18" x2="9.82" y2=".53" xlink:href="#linear-gradient"/>
    <linearGradient id="linear-gradient-6" x1="11.17" y1="-1.18" x2="11.13" y2=".53" xlink:href="#linear-gradient"/>
    <linearGradient id="linear-gradient-7" x1="12.48" y1="-1.18" x2="12.44" y2=".53" xlink:href="#linear-gradient"/>
    <linearGradient id="linear-gradient-8" x1="13.79" y1="-1.18" x2="13.75" y2=".53" xlink:href="#linear-gradient"/>
    <linearGradient id="linear-gradient-9" x1="15.1" y1="-1.18" x2="15.07" y2=".53" xlink:href="#linear-gradient"/>
    <linearGradient id="linear-gradient-10" x1="16.41" y1="-1.18" x2="16.38" y2=".53" xlink:href="#linear-gradient"/>
    <linearGradient id="linear-gradient-11" x1="17.72" y1="-1.18" x2="17.69" y2=".53" xlink:href="#linear-gradient"/>
    <linearGradient id="linear-gradient-12" x1="19.03" y1="-1.18" x2="19" y2=".53" xlink:href="#linear-gradient"/>
    <linearGradient id="linear-gradient-13" x1="20.34" y1="-1.18" x2="20.31" y2=".53" xlink:href="#linear-gradient"/>
    <linearGradient id="linear-gradient-14" x1="21.66" y1="-1.18" x2="21.62" y2=".53" xlink:href="#linear-gradient"/>
    <linearGradient id="linear-gradient-15" x1="22.97" y1="-1.18" x2="22.93" y2=".53" xlink:href="#linear-gradient"/>
    <linearGradient id="linear-gradient-16" x1="24.28" y1="-1.18" x2="24.24" y2=".53" xlink:href="#linear-gradient"/>
    <linearGradient id="linear-gradient-17" x1="25.59" y1="-1.18" x2="25.55" y2=".53" xlink:href="#linear-gradient"/>
    <linearGradient id="linear-gradient-18" x1="26.9" y1="-1.18" x2="26.87" y2=".53" xlink:href="#linear-gradient"/>
    <linearGradient id="linear-gradient-19" x1="28.21" y1="-1.18" x2="28.18" y2=".53" xlink:href="#linear-gradient"/>
    <linearGradient id="linear-gradient-20" x1="29.52" y1="-1.18" x2="29.49" y2=".53" xlink:href="#linear-gradient"/>
    <linearGradient id="linear-gradient-21" x1="30.83" y1="-1.18" x2="30.8" y2=".53" xlink:href="#linear-gradient"/>
    <linearGradient id="linear-gradient-22" x1="32.14" y1="-1.18" x2="32.11" y2=".53" xlink:href="#linear-gradient"/>
    <linearGradient id="linear-gradient-23" x1="33.46" y1="-1.18" x2="33.42" y2=".53" xlink:href="#linear-gradient"/>
    <linearGradient id="linear-gradient-24" x1="34.77" y1="-1.18" x2="34.73" y2=".53" xlink:href="#linear-gradient"/>
    <linearGradient id="linear-gradient-25" x1="36.07" y1="-1.21" x2="36.04" y2=".5" xlink:href="#linear-gradient"/>
    <linearGradient id="linear-gradient-26" x1="37.38" y1="-1.21" x2="37.35" y2=".5" xlink:href="#linear-gradient"/>
    <linearGradient id="linear-gradient-27" x1="38.69" y1="-1.21" x2="38.66" y2=".5" xlink:href="#linear-gradient"/>
    <linearGradient id="linear-gradient-28" x1="40.01" y1="-1.21" x2="39.97" y2=".5" xlink:href="#linear-gradient"/>
    <linearGradient id="linear-gradient-29" x1="41.32" y1="-1.21" x2="41.28" y2=".5" xlink:href="#linear-gradient"/>
    <linearGradient id="linear-gradient-30" x1="42.63" y1="-1.21" x2="42.59" y2=".5" xlink:href="#linear-gradient"/>
    <linearGradient id="linear-gradient-31" x1="43.94" y1="-1.21" x2="43.9" y2=".5" xlink:href="#linear-gradient"/>
    <linearGradient id="linear-gradient-32" x1="45.25" y1="-1.21" x2="45.22" y2=".5" xlink:href="#linear-gradient"/>
    <linearGradient id="linear-gradient-33" x1="46.56" y1="-1.21" x2="46.53" y2=".5" xlink:href="#linear-gradient"/>
    <linearGradient id="linear-gradient-34" x1="47.87" y1="-1.21" x2="47.84" y2=".5" xlink:href="#linear-gradient"/>
    <linearGradient id="linear-gradient-35" x1="49.18" y1="-1.21" x2="49.15" y2=".5" xlink:href="#linear-gradient"/>
    <linearGradient id="linear-gradient-36" x1="50.49" y1="-1.21" x2="50.46" y2=".5" xlink:href="#linear-gradient"/>
    <linearGradient id="linear-gradient-37" x1="51.81" y1="-1.21" x2="51.77" y2=".5" xlink:href="#linear-gradient"/>
    <linearGradient id="linear-gradient-38" x1="53.12" y1="-1.21" x2="53.08" y2=".5" xlink:href="#linear-gradient"/>
    <linearGradient id="linear-gradient-39" x1="54.43" y1="-1.21" x2="54.39" y2=".5" xlink:href="#linear-gradient"/>
    <linearGradient id="linear-gradient-40" x1="55.74" y1="-1.21" x2="55.7" y2=".5" xlink:href="#linear-gradient"/>
    <linearGradient id="linear-gradient-41" x1="57.05" y1="-1.21" x2="57.02" y2=".5" xlink:href="#linear-gradient"/>
    <linearGradient id="linear-gradient-42" x1="58.36" y1="-1.21" x2="58.33" y2=".5" xlink:href="#linear-gradient"/>
    <linearGradient id="linear-gradient-43" x1="59.67" y1="-1.21" x2="59.64" y2=".5" xlink:href="#linear-gradient"/>
    <linearGradient id="linear-gradient-44" x1="60.98" y1="-1.21" x2="60.95" y2=".5" xlink:href="#linear-gradient"/>
    <clipPath id="clippath-2">
      <path class="cls-14" d="m57.13,10.22c-3.03-3.54-7.24-5.9-11.83-6.63L23.38.13c-.59-.08-1.18-.13-1.77-.13-3.43,0-6.63,1.56-8.75,4.29-2.12,2.71-2.87,6.2-2.04,9.52l2.63,10.6.86,3.51c1.42,5.71,6.52,9.71,12.42,9.71h23.56c6.36,0,11.54-5.18,11.54-11.51v-3.17c0-4.7-1.69-9.2-4.7-12.74Z"/>
    </clipPath>
    <linearGradient id="Dégradé_sans_nom_31" data-name="Dégradé sans nom 31" x1="34.06" y1="-7.37" x2="34.06" y2="40.48" gradientUnits="userSpaceOnUse">
      <stop offset="0" stop-color="#e5e5e5"/>
      <stop offset=".02" stop-color="#dcdcdc"/>
      <stop offset=".07" stop-color="#c5c5c5"/>
      <stop offset=".13" stop-color="#b6b6b6"/>
      <stop offset=".17" stop-color="#b2b2b2"/>
      <stop offset=".26" stop-color="#d5d5d4"/>
      <stop offset=".34" stop-color="#efefed"/>
      <stop offset=".39" stop-color="#f9f9f7"/>
      <stop offset=".48" stop-color="#fff"/>
      <stop offset=".56" stop-color="#ddd"/>
      <stop offset=".72" stop-color="#f5f5f5"/>
      <stop offset=".73" stop-color="#f7f7f7"/>
      <stop offset=".79" stop-color="#f0f0f0"/>
      <stop offset=".88" stop-color="#dfdfde"/>
      <stop offset=".97" stop-color="#c2c2c2"/>
      <stop offset="1" stop-color="#babab9"/>
    </linearGradient>
    <radialGradient id="Dégradé_sans_nom_3" data-name="Dégradé sans nom 3" cx="38.72" cy="-6.35" fx="38.72" fy="-6.35" r="30.38" gradientTransform="translate(13.44 -39.07) rotate(91.78) scale(.88 4.35) skewX(5.91)" gradientUnits="userSpaceOnUse">
      <stop offset=".39" stop-color="#c3c3c3"/>
      <stop offset=".5" stop-color="#989898"/>
      <stop offset=".57" stop-color="gray"/>
      <stop offset=".85" stop-color="#404040"/>
      <stop offset=".89" stop-color="#3e3e3e"/>
      <stop offset=".91" stop-color="#373737"/>
      <stop offset=".92" stop-color="#2b2b2b"/>
      <stop offset=".93" stop-color="#1a1a1a"/>
      <stop offset=".93" stop-color="#040404"/>
      <stop offset=".93" stop-color="#000"/>
    </radialGradient>
  </defs>
  <g class="cls-50">
    <g id="Calque_1" data-name="Calque 1">
      <g class="cls-52">
        <g class="cls-51">
          <g>
            <g>
              <rect class="cls-6" x="4.27" y="-1.14" width=".66" height="1.34"/>
              <rect class="cls-29" x="5.58" y="-1.14" width=".66" height="1.34"/>
              <rect class="cls-32" x="6.89" y="-1.14" width=".66" height="1.34"/>
              <rect class="cls-46" x="8.2" y="-1.14" width=".66" height="1.34"/>
              <rect class="cls-13" x="9.51" y="-1.14" width=".66" height="1.34"/>
              <rect class="cls-8" x="10.83" y="-1.14" width=".66" height="1.34"/>
              <rect class="cls-30" x="12.14" y="-1.14" width=".66" height="1.34"/>
              <rect class="cls-36" x="13.45" y="-1.14" width=".66" height="1.34"/>
              <rect class="cls-33" x="14.76" y="-1.14" width=".66" height="1.34"/>
              <rect class="cls-45" x="16.07" y="-1.14" width=".66" height="1.34"/>
              <rect class="cls-12" x="17.38" y="-1.14" width=".66" height="1.34"/>
              <rect class="cls-2" x="18.69" y="-1.14" width=".66" height="1.34"/>
              <rect class="cls-19" x="20" y="-1.14" width=".66" height="1.34"/>
              <rect class="cls-28" x="21.31" y="-1.14" width=".66" height="1.34"/>
              <rect class="cls-11" x="22.63" y="-1.14" width=".66" height="1.34"/>
              <rect class="cls-23" x="23.94" y="-1.14" width=".66" height="1.34"/>
              <rect class="cls-3" x="25.25" y="-1.14" width=".66" height="1.34"/>
              <rect class="cls-39" x="26.56" y="-1.14" width=".66" height="1.34"/>
              <rect class="cls-4" x="27.87" y="-1.14" width=".66" height="1.34"/>
              <rect class="cls-27" x="29.18" y="-1.14" width=".66" height="1.34"/>
              <rect class="cls-7" x="30.49" y="-1.14" width=".66" height="1.34"/>
              <rect class="cls-24" x="31.8" y="-1.14" width=".66" height="1.34"/>
              <rect class="cls-20" x="33.11" y="-1.14" width=".66" height="1.34"/>
              <rect class="cls-37" x="34.42" y="-1.14" width=".66" height="1.34"/>
            </g>
            <g>
              <rect class="cls-21" x="35.73" y="-1.17" width=".66" height="1.34"/>
              <rect class="cls-38" x="37.04" y="-1.17" width=".66" height="1.34"/>
              <rect class="cls-34" x="38.35" y="-1.17" width=".66" height="1.34"/>
              <rect class="cls-44" x="39.66" y="-1.17" width=".66" height="1.34"/>
              <rect class="cls-42" x="40.97" y="-1.17" width=".66" height="1.34"/>
              <rect class="cls-40" x="42.29" y="-1.17" width=".66" height="1.34"/>
              <rect class="cls-15" x="43.6" y="-1.17" width=".66" height="1.34"/>
              <rect class="cls-26" x="44.91" y="-1.17" width=".66" height="1.34"/>
              <rect class="cls-5" x="46.22" y="-1.17" width=".66" height="1.34"/>
              <rect class="cls-16" x="47.53" y="-1.17" width=".66" height="1.34"/>
              <rect class="cls-25" x="48.84" y="-1.17" width=".66" height="1.34"/>
              <rect class="cls-35" x="50.15" y="-1.17" width=".66" height="1.34"/>
              <rect class="cls-47" x="51.46" y="-1.17" width=".66" height="1.34"/>
              <rect class="cls-1" x="52.77" y="-1.17" width=".66" height="1.34"/>
              <rect class="cls-31" x="54.09" y="-1.17" width=".66" height="1.34"/>
              <rect class="cls-18" x="55.4" y="-1.17" width=".66" height="1.34"/>
              <rect class="cls-17" x="56.71" y="-1.17" width=".66" height="1.34"/>
              <rect class="cls-9" x="58.02" y="-1.17" width=".66" height="1.34"/>
              <rect class="cls-22" x="59.33" y="-1.17" width=".66" height="1.34"/>
              <rect class="cls-41" x="60.64" y="-1.17" width=".66" height="1.34"/>
            </g>
          </g>
        </g>
      </g>
      <path class="cls-10" d="m57.13,10.22c-3.03-3.54-7.24-5.9-11.83-6.63L23.38.13c-.59-.08-1.18-.13-1.77-.13-3.43,0-6.63,1.56-8.75,4.29-2.12,2.71-2.87,6.2-2.04,9.52l2.63,10.6.86,3.51c1.42,5.71,6.52,9.71,12.42,9.71h23.56c6.36,0,11.54-5.18,11.54-11.51v-3.17c0-4.7-1.69-9.2-4.7-12.74Z"/>
      <g class="cls-49">
        <rect class="cls-48" x=".85" y="-8.72" width="66.41" height="50.71" rx="20.93" ry="20.93" transform="translate(2.18 -3.87) rotate(6.71)"/>
        <rect class="cls-43" x="-5.74" y="-.78" width="82" height="47"/>
      </g>
      <g id="g4488">
        <g id="path4490">
          <polygon class="cls-10" points="9.74 39.58 3.7 39.58 0 22.47 6.06 22.47 6.57 24.85 6.6 24.93 9.6 38.83 9.6 38.94 9.74 39.58"/>
        </g>
      </g>
      <path class="cls-10" d="m19.14,37.64h-7.67l-2.58-11.91h2.74l.67,2.71c.99,3.94,3.51,7.22,6.84,9.2Z"/>
    </g>
  </g>
</svg>