<?xml version="1.0" encoding="UTF-8"?>
<svg xmlns="http://www.w3.org/2000/svg" xmlns:xlink="http://www.w3.org/1999/xlink" viewBox="0 0 61.83 39.58">
  <defs>
    <style>
      .cls-1 {
        isolation: isolate;
      }

      .cls-2, .cls-3, .cls-4, .cls-5, .cls-6 {
        stroke-width: 0px;
      }

      .cls-3 {
        fill: none;
      }

      .cls-4 {
        fill: #020a14;
      }

      .cls-4, .cls-5 {
        mix-blend-mode: multiply;
      }

      .cls-7 {
        clip-path: url(#clippath);
      }

      .cls-5 {
        fill: url(#Dégradé_sans_nom_3);
        opacity: .23;
      }

      .cls-6 {
        fill: url(#Dégradé_sans_nom_31);
      }
    </style>
    <clipPath id="clippath">
      <path class="cls-3" d="m57.13,10.22c-3.03-3.54-7.24-5.9-11.83-6.63L23.38.13c-.59-.08-1.18-.13-1.77-.13-3.43,0-6.63,1.56-8.75,4.29-2.12,2.71-2.87,6.2-2.04,9.52l2.63,10.6.86,3.51c1.42,5.71,6.52,9.71,12.42,9.71h23.56c6.36,0,11.54-5.18,11.54-11.51v-3.17c0-4.7-1.69-9.2-4.7-12.74Z"/>
    </clipPath>
    <linearGradient id="Dégradé_sans_nom_31" data-name="Dégradé sans nom 31" x1="28.96" y1="3.72" x2="28.96" y2="51.57" gradientTransform="translate(5.1 -11.09)" gradientUnits="userSpaceOnUse">
      <stop offset="0" stop-color="#e5e5e5"/>
      <stop offset=".02" stop-color="#dcdcdc"/>
      <stop offset=".07" stop-color="#c5c5c5"/>
      <stop offset=".13" stop-color="#b6b6b6"/>
      <stop offset=".17" stop-color="#b2b2b2"/>
      <stop offset=".26" stop-color="#d5d5d4"/>
      <stop offset=".34" stop-color="#efefed"/>
      <stop offset=".39" stop-color="#f9f9f7"/>
      <stop offset=".48" stop-color="#fff"/>
      <stop offset=".56" stop-color="#ddd"/>
      <stop offset=".72" stop-color="#f5f5f5"/>
      <stop offset=".73" stop-color="#f7f7f7"/>
      <stop offset=".79" stop-color="#f0f0f0"/>
      <stop offset=".88" stop-color="#dfdfde"/>
      <stop offset=".97" stop-color="#c2c2c2"/>
      <stop offset="1" stop-color="#babab9"/>
    </linearGradient>
    <radialGradient id="Dégradé_sans_nom_3" data-name="Dégradé sans nom 3" cx="70.69" cy="-13.13" fx="70.69" fy="-13.13" r="30.38" gradientTransform="translate(-15.19 -67.44) rotate(91.78) scale(.88 4.35) skewX(5.91)" gradientUnits="userSpaceOnUse">
      <stop offset=".39" stop-color="#c3c3c3"/>
      <stop offset=".5" stop-color="#989898"/>
      <stop offset=".57" stop-color="gray"/>
      <stop offset=".85" stop-color="#404040"/>
      <stop offset=".89" stop-color="#3e3e3e"/>
      <stop offset=".91" stop-color="#373737"/>
      <stop offset=".92" stop-color="#2b2b2b"/>
      <stop offset=".93" stop-color="#1a1a1a"/>
      <stop offset=".93" stop-color="#040404"/>
      <stop offset=".93" stop-color="#000"/>
    </radialGradient>
  </defs>
  <g class="cls-1">
    <g id="Calque_1" data-name="Calque 1">
      <g class="cls-7">
        <rect class="cls-6" x=".85" y="-8.72" width="66.41" height="50.71" rx="20.93" ry="20.93" transform="translate(2.18 -3.87) rotate(6.71)"/>
        <rect class="cls-5" x="-5.74" y="-.78" width="82" height="47"/>
      </g>
      <path class="cls-4" d="m57.13,10.22c-3.03-3.54-7.24-5.9-11.83-6.63L23.38.13c-.59-.08-1.18-.13-1.77-.13-3.43,0-6.63,1.56-8.75,4.29-2.12,2.71-2.87,6.2-2.04,9.52l2.63,10.6.86,3.51c1.42,5.71,6.52,9.71,12.42,9.71h23.56c6.36,0,11.54-5.18,11.54-11.51v-3.17c0-4.7-1.69-9.2-4.7-12.74Z"/>
      <g id="g4488">
        <g id="path4490">
          <polygon class="cls-2" points="9.74 39.58 3.7 39.58 0 22.47 6.06 22.47 6.57 24.85 6.6 24.93 9.6 38.83 9.6 38.94 9.74 39.58"/>
        </g>
      </g>
      <path class="cls-2" d="m19.14,37.64h-7.67l-2.58-11.91h2.74l.67,2.71c.99,3.94,3.51,7.22,6.84,9.2Z"/>
    </g>
  </g>
</svg>