<?xml version="1.0" encoding="UTF-8"?>
<svg id="Calque_1" data-name="Calque 1" xmlns="http://www.w3.org/2000/svg" xmlns:xlink="http://www.w3.org/1999/xlink" viewBox="0 0 61.83 39.58">
  <defs>
    <style>
      .cls-1, .cls-2 {
        stroke-width: 0px;
      }

      .cls-2 {
        fill: url(#Dégradé_sans_nom_8);
      }
    </style>
    <linearGradient id="Dégradé_sans_nom_8" data-name="Dégradé sans nom 8" x1="13.7" y1="18.8" x2="58.61" y2="18.8" gradientUnits="userSpaceOnUse">
      <stop offset="0" stop-color="#d9bc6f"/>
      <stop offset=".98" stop-color="#a1813f"/>
    </linearGradient>
  </defs>
  <g>
    <g id="_3068_-_Side_Mirror" data-name="3068 - Side Mirror">
      <g id="g4470">
        <g id="g4480">
          <g id="g4482">
            <g id="g4488">
              <g id="path4490">
                <polygon class="cls-1" points="9.74 39.58 3.7 39.58 0 22.47 6.06 22.47 6.57 24.85 6.6 24.93 9.6 38.83 9.6 38.94 9.74 39.58"/>
              </g>
            </g>
            <g id="g4492">
              <g id="path4494">
                <path class="cls-1" d="m19.14,37.64h-7.67l-2.58-11.91h2.74l.67,2.71c.99,3.94,3.51,7.22,6.84,9.2Z"/>
                <path class="cls-1" d="m57.13,10.22c-3.03-3.54-7.24-5.9-11.83-6.63L23.38.13c-.59-.08-1.18-.13-1.77-.13-3.43,0-6.63,1.56-8.75,4.29-2.12,2.71-2.87,6.2-2.04,9.52l2.63,10.6.86,3.51c1.42,5.71,6.52,9.71,12.42,9.71h23.56c6.36,0,11.54-5.18,11.54-11.51v-3.17c0-4.7-1.69-9.2-4.7-12.74Zm1.48,15.88c0,4.59-3.73,8.32-8.32,8.32h-23.56c-4.4,0-8.26-3-9.31-7.3l-3.49-14.11c-1.37-5.5,3.33-10.62,8.93-9.74l21.89,3.46c7.97,1.26,13.82,8.13,13.82,16.18l.03,3.19h0Z"/>
              </g>
            </g>
          </g>
        </g>
      </g>
    </g>
    <path class="cls-2" d="m58.61,26.1h0c0,4.59-3.73,8.32-8.32,8.32h-23.56c-4.4,0-8.26-3-9.31-7.3l-3.49-14.11c-1.37-5.5,3.33-10.62,8.93-9.74l21.89,3.46c7.97,1.26,13.82,8.13,13.82,16.18l.03,3.19"/>
  </g>
  <g>
    <path class="cls-1" d="m41,33.57c-.54.29-1.17.26-1.65-.03-.25-.15-.45-.35-.61-.63l-3.15-7.09-.51.04c.2.16.35.4.38.69.06.54-.34,1.04-.88,1.08l-6.4.67c-.25.03-.5.04-.75.04-2.97,0-5.62-1.87-6.6-4.74l-4.96-14.63c-.18-.53.1-1.08.61-1.27.53-.18,1.08.1,1.27.63l1.46,4.32c-.09.31-.21.5-.32.61-.16.18-.37.26-.66.26-.37,0-.53.23-.54.41-.04.41.44.67.86.76.25.06.75.12,1.33-.07l2.83,8.33c.22.64.56,1.22.97,1.7-.03-.25-.03-.53,0-.83.5-6.27-1.95-6.52-2.09-8.78-.15-2.33,1.45-3.41,3.09-3.18.76,1.54,1.2,1.73,2.24,1.95,1.58.32,2.59,3.35.73,4.13.03.42.07.81.13,1.16l-2.81-4.77c-.37-.6-1.14-.79-1.74-.42-.59.37-.78,1.14-.41,1.74l4.07,6.9c.04.09.1.16.18.22.21.23.51.37.82.38l6.03.4.42.45h.01c.25.26.57.4.91.4.31,0,.61-.12.86-.34.45-.44.51-1.11.18-1.63.16-.01.35-.04.54-.06.7-.04,1.35.42,1.49,1.11l3.31,7.83c.44.79.15,1.8-.64,2.25Z"/>
    <path class="cls-1" d="m21.05,13.36c.85-.98.66-2.64.7-3.93-.14-.28-.25-.58-.32-.9-.13-.57-.12-1.14,0-1.68-1,.48-1.89,1.5-1.72,3.8.2,2.78-.72,3.27-1.47,3.27-.75,0,1.15,1.35,2.82-.57Z"/>
    <circle class="cls-1" cx="25.3" cy="7.67" r="3.57"/>
    <path class="cls-1" d="m35.92,22.52c.34.37.32.94-.04,1.27-.35.34-.92.32-1.26-.03l-.13.12.12-.13-.51-.56-6.18-.41c-.23-.01-.44-.1-.59-.26-.06-.04-.09-.1-.12-.15l-4.09-6.91c-.25-.42-.12-.98.29-1.23.42-.26.98-.13,1.23.29l3.79,6.43.04.07,6.08.4c.23.01.44.12.59.28l.78.82Z"/>
  </g>
</svg>