<?xml version="1.0" encoding="UTF-8"?>
<svg id="Calque_1" data-name="Calque 1" xmlns="http://www.w3.org/2000/svg" viewBox="0 0 61.83 39.58">
  <defs>
    <style>
      .cls-1 {
        fill: #0f0f0f;
        stroke: #f7f7f7;
        stroke-width: .93px;
      }

      .cls-2, .cls-3 {
        stroke-width: 0px;
      }

      .cls-3 {
        fill: #fff;
      }

      .cls-4 {
        fill: none;
        stroke: #fff;
        stroke-linecap: round;
        stroke-miterlimit: 10;
        stroke-width: .27px;
      }
    </style>
  </defs>
  <g>
    <g id="_3068_-_Side_Mirror" data-name="3068 - Side Mirror">
      <g id="g4470">
        <g id="g4480">
          <g id="g4482">
            <g id="g4488">
              <g id="path4490">
                <polygon class="cls-2" points="9.74 39.58 3.7 39.58 0 22.47 6.06 22.47 6.57 24.85 6.6 24.93 9.6 38.83 9.6 38.94 9.74 39.58"/>
              </g>
            </g>
            <g id="g4492">
              <g id="path4494">
                <path class="cls-2" d="m19.14,37.64h-7.67l-2.58-11.91h2.74l.67,2.71c.99,3.94,3.51,7.22,6.84,9.2Z"/>
                <path class="cls-2" d="m57.13,10.22c-3.03-3.54-7.24-5.9-11.83-6.63L23.38.13c-.59-.08-1.18-.13-1.77-.13-3.43,0-6.63,1.56-8.75,4.29-2.12,2.71-2.87,6.2-2.04,9.52l2.63,10.6.86,3.51c1.42,5.71,6.52,9.71,12.42,9.71h23.56c6.36,0,11.54-5.18,11.54-11.51v-3.17c0-4.7-1.69-9.2-4.7-12.74Zm1.48,15.88c0,4.59-3.73,8.32-8.32,8.32h-23.56c-4.4,0-8.26-3-9.31-7.3l-3.49-14.11c-1.37-5.5,3.33-10.62,8.93-9.74l21.89,3.46c7.97,1.26,13.82,8.13,13.82,16.18l.03,3.19h0Z"/>
              </g>
            </g>
          </g>
        </g>
      </g>
    </g>
    <path class="cls-2" d="m58.61,26.1h0c0,4.59-3.73,8.32-8.32,8.32h-23.56c-4.4,0-8.26-3-9.31-7.3l-3.49-14.11c-1.37-5.5,3.33-10.62,8.93-9.74l21.89,3.46c7.97,1.26,13.82,8.13,13.82,16.18l.03,3.19"/>
  </g>
  <g>
    <rect class="cls-1" x="27.51" y="10.58" width="18.63" height="18.63" rx="3.39" ry="3.39"/>
    <path class="cls-3" d="m36.82,13.97l1.69,2.54h-3.39l1.69-2.54Zm0,11.86l-1.69-2.54h3.39l-1.69,2.54Zm-5.93-5.93l2.54-1.69v3.39l-2.54-1.69Zm11.86,0l-2.54,1.69v-3.39l2.54,1.69Z"/>
    <path class="cls-4" d="m33.44,16.51c1.1-1.1,2.12-1.61,3.39-1.61s2.29.51,3.39,1.61m-6.77,6.77c1.1,1.1,2.12,1.61,3.39,1.61s2.29-.51,3.39-1.61"/>
  </g>
</svg>