<?xml version="1.0" encoding="UTF-8"?>
<svg id="Calque_1" data-name="Calque 1" xmlns="http://www.w3.org/2000/svg" viewBox="0 0 63.86 40">
  <defs>
    <style>
      .cls-1 {
        fill: none;
        stroke: red;
        stroke-miterlimit: 10;
        stroke-width: .82px;
      }

      .cls-2, .cls-3, .cls-4, .cls-5 {
        stroke-width: 0px;
      }

      .cls-3 {
        fill: red;
      }

      .cls-4 {
        fill: #333;
      }

      .cls-5 {
        fill: #515151;
      }

      .cls-6 {
        opacity: .57;
      }
    </style>
  </defs>
  <polygon class="cls-3" points="51.97 13.47 44.8 13.5 48.69 15.93 51.97 13.47"/>
  <g id="g4488">
    <g id="path4490">
      <path class="cls-2" d="m19.81,40h-5.69l-2.49-11.49h2.49l.37,1.8c.62,3.04,2.42,5.71,5,7.43h0s.23,1.75.23,1.75v.07l.09.43Z"/>
    </g>
  </g>
  <g class="cls-6">
    <path class="cls-5" d="m49.17,20.47c-2.04-2.38-4.86-3.96-7.94-4.45l-14.72-2.32c-.4-.05-.79-.09-1.19-.09-2.31,0-4.45,1.04-5.87,2.88-1.42,1.82-1.93,4.16-1.37,6.39l1.77,7.11.58,2.36c.95,3.84,4.38,6.52,8.34,6.52h15.81c4.27,0,7.75-3.48,7.75-7.73v-2.13c0-3.15-1.13-6.18-3.15-8.56Z"/>
  </g>
  <path class="cls-4" d="m38.62,8.49c-3.04-.76-6.26-.42-9.05.96l-9.32,5.45c-.35.18-.89,2.47-1.22,2.69-1.88,1.33.63.91.53,3.24-.08,2-.73,2.22.74,6.66l-.11,5.72,1.83,1.59c3,2.58,7.34,2.79,10.57.5l12.91-9.14c3.48-2.47,4.31-7.31,1.85-10.78l-1.23-1.73c-1.82-2.57-4.5-4.39-7.52-5.16Z"/>
  <path class="cls-2" d="m15.35,30.06c-.71-3.37-1.77-8.35-2.29-10.84s-.56-4.91,1.14-6.36,5.92-6.45,10.42-9.45,9.7-4.33,11.46,0,3.57,11.46,1.11,16.72-7.4,14.11-9.98,17.18c-2.92,2.48-10.17.74-11.86-7.25Z"/>
  <path class="cls-1" d="m48.28,14.44c2.68,1.29,4.67,2.98,4.91,5.18.66,5.93-9.84,10.66-19.92,11.19"/>
  <polygon class="cls-3" points="35.15 32.36 28.22 30.54 32.59 29.16 35.15 32.36"/>
</svg>