<?xml version="1.0" encoding="UTF-8"?>
<svg id="Calque_1" data-name="Calque 1" xmlns="http://www.w3.org/2000/svg" viewBox="0 0 61.83 39.58">
  <defs>
    <style>
      .cls-1, .cls-2 {
        stroke-width: 0px;
      }

      .cls-2 {
        fill: #d8712b;
      }
    </style>
  </defs>
  <polygon class="cls-2" points="42.76 31.72 45.74 40.08 44.78 40.36 42.76 31.72 42.76 31.72"/>
  <polygon class="cls-2" points="41.76 31.72 43.76 40.13 42.77 40.31 41.76 31.72 41.76 31.72"/>
  <polygon class="cls-2" points="38.76 31.72 36.74 40.36 35.78 40.08 38.76 31.72 38.76 31.72"/>
  <polygon class="cls-2" points="40.76 31.72 40.76 40.25 39.76 40.19 40.76 31.72 40.76 31.72"/>
  <polygon class="cls-2" points="39.76 31.72 38.75 40.3 37.77 40.13 39.76 31.72 39.76 31.72"/>
  <g>
    <g id="_3068_-_Side_Mirror" data-name="3068 - Side Mirror">
      <g id="g4470">
        <g id="g4480">
          <g id="g4482">
            <g id="g4488">
              <g id="path4490">
                <polygon class="cls-1" points="8.42 34.22 3.2 34.22 0 19.42 5.24 19.42 5.68 21.49 5.71 21.56 8.3 33.57 8.3 33.66 8.42 34.22"/>
              </g>
            </g>
            <g id="g4492">
              <g id="path4494">
                <path class="cls-1" d="m16.55,32.54h-6.63l-2.23-10.3h2.37l.58,2.34c.86,3.41,3.04,6.24,5.91,7.96Z"/>
                <path class="cls-1" d="m49.39,8.84c-2.62-3.06-6.26-5.1-10.23-5.73L20.21.12c-.51-.07-1.02-.12-1.53-.12-2.97,0-5.73,1.35-7.56,3.71-1.83,2.34-2.48,5.36-1.76,8.23l2.27,9.16.74,3.04c1.23,4.94,5.64,8.4,10.74,8.4h20.36c5.5,0,9.97-4.48,9.97-9.95v-2.74c0-4.06-1.46-7.96-4.06-11.02Zm1.28,13.73c0,3.97-3.22,7.19-7.19,7.19h-20.36c-3.8,0-7.14-2.6-8.05-6.31l-3.02-12.2c-1.18-4.75,2.88-9.18,7.72-8.42l18.93,2.99c6.89,1.09,11.94,7.03,11.94,13.99l.02,2.76h0Z"/>
              </g>
            </g>
          </g>
        </g>
      </g>
    </g>
    <path class="cls-1" d="m50.66,22.57h0c0,3.97-3.22,7.19-7.19,7.19h-20.36c-3.8,0-7.14-2.6-8.05-6.31l-3.02-12.2c-1.18-4.75,2.88-9.18,7.72-8.42l18.93,2.99c6.89,1.09,11.94,7.03,11.94,13.99l.02,2.76"/>
  </g>
</svg>