<?xml version="1.0" encoding="UTF-8"?>
<svg id="Calque_1" data-name="Calque 1" xmlns="http://www.w3.org/2000/svg" xmlns:xlink="http://www.w3.org/1999/xlink" viewBox="0 0 61.83 39.58">
  <defs>
    <style>
      .cls-1, .cls-2 {
        stroke-width: 0px;
      }

      .cls-2 {
        fill: url(#Dégradé_sans_nom_8);
      }
    </style>
    <linearGradient id="Dégradé_sans_nom_8" data-name="Dégradé sans nom 8" x1="2068.57" y1="18.8" x2="2113.48" y2="18.8" gradientTransform="translate(2116.7) rotate(-180) scale(1 -1)" gradientUnits="userSpaceOnUse">
      <stop offset="0" stop-color="#d9bc6f"/>
      <stop offset=".98" stop-color="#a1813f"/>
    </linearGradient>
  </defs>
  <g>
    <g id="_3068_-_Side_Mirror" data-name="3068 - Side Mirror">
      <g id="g4470">
        <g id="g4480">
          <g id="g4482">
            <g id="g4488">
              <g id="path4490">
                <polygon class="cls-1" points="52.09 39.58 58.12 39.58 61.83 22.47 55.76 22.47 55.25 24.85 55.23 24.93 52.22 38.83 52.22 38.94 52.09 39.58"/>
              </g>
            </g>
            <g id="g4492">
              <g id="path4494">
                <path class="cls-1" d="m42.68,37.64h7.67s2.58-11.91,2.58-11.91h-2.74s-.67,2.71-.67,2.71c-.99,3.94-3.51,7.22-6.84,9.2Z"/>
                <path class="cls-1" d="m0,22.97v3.17c0,6.33,5.18,11.51,11.54,11.51h23.56c5.9,0,11-4,12.42-9.71l.86-3.51,2.63-10.6c.83-3.33.08-6.81-2.04-9.52C46.84,1.56,43.65,0,40.22,0c-.59,0-1.18.05-1.77.13l-21.92,3.46c-4.59.72-8.8,3.09-11.83,6.63C1.69,13.76,0,18.27,0,22.97Zm3.22,3.14l.03-3.19c0-8.05,5.85-14.92,13.82-16.18l21.89-3.46c5.61-.89,10.3,4.24,8.93,9.74l-3.49,14.11c-1.05,4.29-4.91,7.3-9.31,7.3H11.54c-4.59,0-8.32-3.73-8.32-8.32h0Z"/>
              </g>
            </g>
          </g>
        </g>
      </g>
    </g>
    <path class="cls-2" d="m3.22,26.1h0c0,4.59,3.73,8.32,8.32,8.32h23.56c4.4,0,8.26-3,9.31-7.3l3.49-14.11c1.37-5.5-3.33-10.62-8.93-9.74l-21.89,3.46C9.09,7.99,3.25,14.86,3.25,22.91l-.03,3.19"/>
  </g>
  <g>
    <path class="cls-1" d="m26.56,18.56l-1.71-3.68-1.02-.93h-.59c-.13,0-.25,0-.37-.04l.8,1.72-9,4.18.37.8,9-4.18,1.26,2.71c.16.35.57.5.92.34s.5-.57.34-.92Z"/>
    <path class="cls-1" d="m14.94,36.45c.23-.08.35-.32.28-.55-.06-.17-1.42-4.25-4.26-6.57-.19-.15-.46-.13-.62.06-.15.19-.13.46.06.62,2.64,2.16,3.97,6.13,3.98,6.17.06.18.23.3.42.3.05,0,.09,0,.14-.02h0Z"/>
    <path class="cls-1" d="m36.53,13.92c.11-.02.22-.04.33-.04.72,0,1.35.51,1.5,1.21.09.4.01.81-.21,1.16-.22.35-.56.59-.97.67l-4.16.91c.07.02.15.04.23.05-.22,2.73-.86,4.73-1.45,6.14l-7.2-.58c-.36-.03-.72.05-1.03.24l-8.81,5.2c-.83.49-1.11,1.56-.62,2.4.33.55.91.86,1.51.86.3,0,.61-.08.89-.24l8.33-4.92.53.04c-.22.17-.37.42-.4.72-.06.58.36,1.09.93,1.15l6.74.71c.26.03.53.04.79.04,3.13,0,5.92-1.97,6.95-4.99l5.23-15.41c.19-.55-.11-1.14-.66-1.33-.55-.19-1.14.11-1.33.66l-1.55,4.55-.71,2.08-2.98,8.78c-.23.67-.58,1.27-1.02,1.78.03-.26.04-.56.01-.88,1.43-5.91,2.05-6.85,2.2-9.25.15-2.44-1.51-3.58-3.24-3.34-.81,1.62-1.75,1.76-2.37,2.04"/>
    <path class="cls-1" d="m23.24,13.55s.01,0,.02,0h.73s4.77,4.33,4.77,4.33c.21.19.48.3.76.3.08,0,.16,0,.24-.03l7.34-1.61c.61-.13,1-.74.87-1.35-.13-.61-.74-1-1.35-.87l-6.77,1.49-4.66-4.24c-.21-.19-.49-.31-.78-.3l-1.18.02c-.63,0-1.13.52-1.12,1.15,0,.62.52,1.12,1.14,1.12h0Z"/>
    <circle class="cls-1" cx="35.72" cy="7.86" r="3.76"/>
  </g>
</svg>