<?xml version="1.0" encoding="UTF-8"?>
<svg id="Calque_1" data-name="Calque 1" xmlns="http://www.w3.org/2000/svg" xmlns:xlink="http://www.w3.org/1999/xlink" viewBox="0 0 80.28 38.84">
  <defs>
    <style>
      .cls-1, .cls-2 {
        stroke-width: 0px;
      }

      .cls-2 {
        fill: url(#Dégradé_sans_nom_8);
      }

      .cls-3 {
        fill: none;
        stroke: #000;
        stroke-miterlimit: 10;
        stroke-width: 4.04px;
      }
    </style>
    <linearGradient id="Dégradé_sans_nom_8" data-name="Dégradé sans nom 8" x1="33.05" y1="18.45" x2="77.12" y2="18.45" gradientUnits="userSpaceOnUse">
      <stop offset="0" stop-color="#d9bc6f"/>
      <stop offset=".98" stop-color="#a1813f"/>
    </linearGradient>
  </defs>
  <g>
    <g id="_3068_-_Side_Mirror" data-name="3068 - Side Mirror">
      <g id="g4470">
        <g id="g4480">
          <g id="g4482">
            <g id="g4488">
              <g id="path4490">
                <polygon class="cls-1" points="29.16 38.84 23.24 38.84 19.61 22.05 25.56 22.05 26.06 24.39 26.08 24.47 29.03 38.11 29.03 38.21 29.16 38.84"/>
              </g>
            </g>
            <g id="g4492">
              <g id="path4494">
                <path class="cls-1" d="m38.39,36.94h-7.53l-2.53-11.69h2.69l.66,2.66c.97,3.87,3.45,7.08,6.71,9.03Z"/>
                <path class="cls-1" d="m75.67,10.03c-2.97-3.48-7.11-5.79-11.61-6.5L42.55.13c-.58-.08-1.16-.13-1.74-.13-3.37,0-6.5,1.53-8.58,4.21-2.08,2.66-2.82,6.08-2,9.35l2.58,10.4.84,3.45c1.4,5.61,6.4,9.53,12.19,9.53h23.11c6.24,0,11.32-5.08,11.32-11.29v-3.11c0-4.61-1.66-9.03-4.61-12.51Zm1.45,15.59c0,4.5-3.66,8.16-8.16,8.16h-23.11c-4.32,0-8.11-2.95-9.14-7.16l-3.42-13.85c-1.34-5.4,3.26-10.43,8.77-9.56l21.48,3.4c7.82,1.24,13.56,7.98,13.56,15.87l.03,3.13h0Z"/>
              </g>
            </g>
          </g>
        </g>
      </g>
    </g>
    <path class="cls-2" d="m77.12,25.62h0c0,4.5-3.66,8.16-8.16,8.16h-23.11c-4.32,0-8.11-2.95-9.14-7.16l-3.42-13.85c-1.34-5.4,3.26-10.43,8.77-9.56l21.48,3.4c7.82,1.24,13.56,7.98,13.56,15.87l.03,3.13"/>
  </g>
  <line class="cls-3" x1="22.92" y1="29.64" x2="4.04" y2="32.34"/>
  <circle class="cls-1" cx="3.37" cy="33.01" r="3.37"/>
</svg>