<?xml version="1.0" encoding="UTF-8"?>
<svg id="Calque_1" data-name="Calque 1" xmlns="http://www.w3.org/2000/svg" viewBox="0 0 63.86 40">
  <defs>
    <style>
      .cls-1, .cls-2 {
        stroke-width: 0px;
      }

      .cls-2 {
        fill: red;
      }

      .cls-3 {
        fill: none;
        stroke: red;
        stroke-miterlimit: 10;
      }
    </style>
  </defs>
  <polygon class="cls-2" points="40.83 0 32.09 .04 36.83 3 40.83 0"/>
  <g>
    <g id="_3068_-_Side_Mirror" data-name="3068 - Side Mirror">
      <g id="g4470">
        <g id="g4480">
          <g id="g4482">
            <g id="g4488">
              <g id="path4490">
                <polygon class="cls-1" points="9.74 40 3.7 40 0 22.89 6.06 22.89 6.57 25.27 6.6 25.35 9.6 39.25 9.6 39.36 9.74 40"/>
              </g>
            </g>
            <g id="g4492">
              <g id="path4494">
                <path class="cls-1" d="m19.14,38.06h-7.67l-2.58-11.91h2.74l.67,2.71c.99,3.94,3.51,7.22,6.84,9.2Z"/>
                <path class="cls-1" d="m57.13,10.64c-3.03-3.54-7.24-5.9-11.83-6.63L23.38.55c-.59-.08-1.18-.13-1.77-.13-3.43,0-6.63,1.56-8.75,4.29-2.12,2.71-2.87,6.2-2.04,9.52l2.63,10.6.86,3.51c1.42,5.71,6.52,9.71,12.42,9.71h23.56c6.36,0,11.54-5.18,11.54-11.51v-3.17c0-4.7-1.69-9.2-4.7-12.74Zm1.48,15.88c0,4.59-3.73,8.32-8.32,8.32h-23.56c-4.4,0-8.26-3-9.31-7.3l-3.49-14.11c-1.37-5.5,3.33-10.62,8.93-9.74l21.89,3.46c7.97,1.26,13.82,8.13,13.82,16.18l.03,3.19h0Z"/>
              </g>
            </g>
          </g>
        </g>
      </g>
    </g>
    <path class="cls-1" d="m58.61,26.52h0c0,4.59-3.73,8.32-8.32,8.32h-23.56c-4.4,0-8.26-3-9.31-7.3l-3.49-14.11c-1.37-5.5,3.33-10.62,8.93-9.74l21.89,3.46c7.97,1.26,13.82,8.13,13.82,16.18l.03,3.19"/>
  </g>
  <path class="cls-3" d="m37.33,1.5s25,2,26,11c.8,7.24-12,13-24.29,13.65"/>
  <polygon class="cls-2" points="41.31 28.05 32.86 25.82 38.19 24.14 41.31 28.05"/>
</svg>