<?xml version="1.0" encoding="UTF-8"?>
<svg id="Calque_1" data-name="Calque 1" xmlns="http://www.w3.org/2000/svg" xmlns:xlink="http://www.w3.org/1999/xlink" viewBox="0 0 61.83 39.58">
  <defs>
    <style>
      .cls-1, .cls-2, .cls-3, .cls-4 {
        stroke-width: 0px;
      }

      .cls-1, .cls-4 {
        fill-rule: evenodd;
      }

      .cls-3 {
        fill: url(#Dégradé_sans_nom_8);
      }

      .cls-4 {
        fill: #d3971e;
      }
    </style>
    <linearGradient id="Dégradé_sans_nom_8" data-name="Dégradé sans nom 8" x1="13.7" y1="18.8" x2="58.61" y2="18.8" gradientUnits="userSpaceOnUse">
      <stop offset="0" stop-color="#d9bc6f"/>
      <stop offset=".98" stop-color="#a1813f"/>
    </linearGradient>
  </defs>
  <g>
    <g id="_3068_-_Side_Mirror" data-name="3068 - Side Mirror">
      <g id="g4470">
        <g id="g4480">
          <g id="g4482">
            <g id="g4488">
              <g id="path4490">
                <polygon class="cls-2" points="9.74 39.58 3.7 39.58 0 22.47 6.06 22.47 6.57 24.85 6.6 24.93 9.6 38.83 9.6 38.94 9.74 39.58"/>
              </g>
            </g>
            <g id="g4492">
              <g id="path4494">
                <path class="cls-2" d="m19.14,37.64h-7.67l-2.58-11.91h2.74l.67,2.71c.99,3.94,3.51,7.22,6.84,9.2Z"/>
                <path class="cls-2" d="m57.13,10.22c-3.03-3.54-7.24-5.9-11.83-6.63L23.38.13c-.59-.08-1.18-.13-1.77-.13-3.43,0-6.63,1.56-8.75,4.29-2.12,2.71-2.87,6.2-2.04,9.52l2.63,10.6.86,3.51c1.42,5.71,6.52,9.71,12.42,9.71h23.56c6.36,0,11.54-5.18,11.54-11.51v-3.17c0-4.7-1.69-9.2-4.7-12.74Zm1.48,15.88c0,4.59-3.73,8.32-8.32,8.32h-23.56c-4.4,0-8.26-3-9.31-7.3l-3.49-14.11c-1.37-5.5,3.33-10.62,8.93-9.74l21.89,3.46c7.97,1.26,13.82,8.13,13.82,16.18l.03,3.19h0Z"/>
              </g>
            </g>
          </g>
        </g>
      </g>
    </g>
    <path class="cls-3" d="m58.61,26.1h0c0,4.59-3.73,8.32-8.32,8.32h-23.56c-4.4,0-8.26-3-9.31-7.3l-3.49-14.11c-1.37-5.5,3.33-10.62,8.93-9.74l21.89,3.46c7.97,1.26,13.82,8.13,13.82,16.18l.03,3.19"/>
  </g>
  <g id="_509518496" data-name=" 509518496">
    <path id="_509519288" data-name=" 509519288" class="cls-1" d="m42.81,26.86h-13.53v.34c0,.24.2.44.44.44h12.66s0,0,.01,0c.23,0,.41-.18.41-.41v-.38h0Z"/>
    <path id="_509518304" data-name=" 509518304" class="cls-1" d="m39.28,21.35h-7.85c-.12,0-.22.1-.22.22v3.26c0,.12.1.22.22.22h7.85c.12,0,.22-.1.22-.22v-3.26c0-.12-.1-.22-.22-.22h0Z"/>
    <path id="_509519024" data-name=" 509519024" class="cls-1" d="m39.91,24.83c0,.35-.28.63-.63.63h-7.85c-.35,0-.63-.28-.63-.63v-3.26c0-.35.28-.63.63-.63h7.85c.35,0,.63.28.63.63v3.26h0Zm-9.58-7.35v1.44c0,.2-.16.36-.36.36h-.7v7.17h13.53v-1.9s0-.03-.02-.05l-1.2-1.44c-.1-.12-.15-.27-.15-.42v-2.74c0-.2.16-.37.37-.37h1.01v-1.78l-1.22-.9c-.09-.07-.15-.18-.15-.29v-5.54c0-.24-.2-.44-.44-.44h-11.27c-.24,0-.44.2-.44.44v6.1h.7c.2,0,.36.16.36.36h0Zm9.22-2.02h-.98c-.2,0-.36-.16-.36-.36v-3.54c0-.2.16-.36.36-.36h.98c.2,0,.36.16.36.36v3.54c0,.2-.16.36-.36.36h0Zm-2.47,0h-.98c-.2,0-.36-.16-.36-.36v-3.54c0-.2.16-.36.36-.36h.98c.2,0,.36.16.36.36v3.54c0,.2-.16.36-.36.36h0Zm-2.47,0h-.98c-.2,0-.36-.16-.36-.36v-3.54c0-.2.16-.36.36-.36h.98c.2,0,.36.16.36.36v3.54c0,.2-.16.36-.36.36h0Zm-2.47,0h-.98c-.2,0-.36-.16-.36-.36v-3.54c0-.2.16-.36.36-.36h.98c.2,0,.36.16.36.36v3.54c0,.2-.16.36-.36.36Z"/>
    <polygon id="_509518952" data-name=" 509518952" class="cls-4" points="38.63 11.62 38.63 15.05 39.5 15.05 39.5 11.62 38.63 11.62"/>
    <polygon id="_509518832" data-name=" 509518832" class="cls-4" points="36.15 11.62 36.15 15.05 37.03 15.05 37.03 11.62 36.15 11.62"/>
    <polygon id="_509518568" data-name=" 509518568" class="cls-4" points="33.68 11.62 33.68 15.05 34.56 15.05 34.56 11.62 33.68 11.62"/>
    <polygon id="_509518520" data-name=" 509518520" class="cls-4" points="31.21 11.62 31.21 15.05 32.09 15.05 32.09 11.62 31.21 11.62"/>
    <polygon id="_509518904" data-name=" 509518904" class="cls-1" points="29.28 17.53 29.28 18.87 29.93 18.87 29.93 17.53 29.28 17.53"/>
  </g>
</svg>