<?xml version="1.0" encoding="UTF-8"?>
<svg id="Calque_1" data-name="Calque 1" xmlns="http://www.w3.org/2000/svg" viewBox="0 0 42.38 42.38">
  <defs>
    <style>
      .cls-1 {
        fill: #fff;
        stroke-width: 0px;
      }
    </style>
  </defs>
  <path class="cls-1" d="m24.59,27.2h-6.19c-.23,0-.42.19-.42.42s.18.42.42.42h6.19c.23,0,.42-.18.42-.42s-.18-.42-.42-.42Z"/>
  <path class="cls-1" d="m21.19,0C9.49,0,0,9.49,0,21.19s9.49,21.19,21.19,21.19,21.19-9.49,21.19-21.19S32.89,0,21.19,0Zm9.3,27.42c0,1.86-1.52,3.38-3.38,3.38h-11.22c-1.86,0-3.38-1.52-3.38-3.38v-8.92c0-1.59.86-3.09,2.25-3.89l4.68-3.45c1.29-.75,2.84-.75,4.09-.03l4.75,3.5c1.35.78,2.21,2.27,2.21,3.86v8.92Z"/>
</svg>