<?xml version="1.0" encoding="UTF-8"?>
<svg id="Calque_1" data-name="Calque 1" xmlns="http://www.w3.org/2000/svg" viewBox="0 0 42.38 42.38">
  <defs>
    <style>
      .cls-1 {
        fill: #fff;
        stroke-width: 0px;
      }
    </style>
  </defs>
  <path class="cls-1" d="m31.77,13.71c-.21-.57-.55-1.09-.99-1.52-.42-.44-.95-.77-1.52-.99-.47-.18-1.16-.4-2.45-.45-1.39-.06-1.81-.08-5.34-.08s-3.95.02-5.34.08c-1.29.06-1.99.27-2.45.45-.57.21-1.09.55-1.52.99-.44.42-.78.95-.99,1.52-.18.46-.4,1.16-.45,2.45-.06,1.39-.08,1.81-.08,5.34s.02,3.95.08,5.34c.06,1.29.27,1.99.45,2.45.21.57.55,1.09.99,1.52.42.44.95.77,1.52.99.46.18,1.16.4,2.45.45,1.39.06,1.81.08,5.34.08s3.95-.02,5.34-.08c1.29-.06,1.99-.27,2.45-.45,1.15-.44,2.07-1.36,2.51-2.51.18-.46.4-1.16.45-2.45.06-1.39.08-1.81.08-5.34s-.02-3.95-.08-5.34c-.06-1.29-.27-1.99-.45-2.45Zm-10.31,14.58c-3.75,0-6.79-3.04-6.79-6.79s3.04-6.79,6.79-6.79,6.79,3.04,6.79,6.79-3.04,6.79-6.79,6.79Zm7.06-12.27c-.88,0-1.59-.71-1.59-1.59s.71-1.59,1.59-1.59,1.59.71,1.59,1.59-.71,1.59-1.59,1.59Z"/>
  <circle class="cls-1" cx="21.46" cy="21.5" r="4.41"/>
  <path class="cls-1" d="m21.19,0C9.49,0,0,9.49,0,21.19s9.49,21.19,21.19,21.19,21.19-9.49,21.19-21.19S32.89,0,21.19,0Zm13.41,26.95c-.06,1.41-.29,2.37-.61,3.21-.69,1.78-2.09,3.18-3.87,3.87-.84.33-1.8.55-3.21.61-1.41.06-1.86.08-5.45.08s-4.04-.02-5.45-.08c-1.41-.06-2.37-.29-3.21-.61-.88-.33-1.68-.85-2.34-1.52-.67-.66-1.19-1.46-1.53-2.35-.33-.84-.55-1.8-.61-3.21-.06-1.41-.08-1.86-.08-5.45s.02-4.04.08-5.46c.06-1.41.29-2.37.61-3.21.33-.88.85-1.68,1.52-2.34.66-.68,1.46-1.19,2.35-1.53.84-.33,1.8-.55,3.21-.61,1.41-.06,1.86-.08,5.45-.08s4.04.02,5.46.08c1.41.06,2.37.29,3.21.61.88.33,1.68.85,2.34,1.52.68.66,1.19,1.46,1.53,2.35.33.84.55,1.8.61,3.21.06,1.41.07,1.86.07,5.45s-.02,4.04-.08,5.45Z"/>
</svg>