<?xml version="1.0" encoding="UTF-8"?>
<svg id="Calque_1" data-name="Calque 1" xmlns="http://www.w3.org/2000/svg" viewBox="0 0 42.38 42.38">
  <defs>
    <style>
      .cls-1 {
        fill: #fff;
        stroke-width: 0px;
      }
    </style>
  </defs>
  <path class="cls-1" d="m21.19,0C9.49,0,0,9.49,0,21.19s9.49,21.19,21.19,21.19,21.19-9.49,21.19-21.19S32.89,0,21.19,0Zm10.62,31.47c-.7,1.98-2.99,3.72-4.89,3.72h-.03s-.07,0-.1-.01c-.06-.02-.14-.03-.24-.06-.28-.06-.66-.15-1.03-.31-4.05-1.74-7.55-4.06-10.39-6.9-2.91-2.89-5.21-6.4-6.85-10.42-.57-1.39-.59-2.73-.07-3.87.54-1.18,1.62-2.07,3.13-2.58.6-.2,1.18-.2,1.74,0,1.31.48,4.43,4.73,4.51,6.15.07,1.24-.89,1.89-1.4,2.24-.91.62-1.07,1.37-.56,2.53,1.06,2.39,2.93,4.21,5.53,5.39.32.15.62.22.88.22.44,0,.8-.22,1.09-.66.67-1.01,1.47-1.52,2.39-1.52.69,0,1.41.28,2.22.84.13.09.26.18.39.27.63.44,1.28.89,1.9,1.39.12.09.24.19.36.28.9.69,2.03,1.55,1.41,3.29Zm-3.25-9.53c-.08.01-.17.02-.24.02h0c-.91,0-.96-.84-.98-1.25,0-.11-.01-.21-.03-.29-.56-3.39-1.71-4.59-5.13-5.35-.08-.02-.19-.03-.29-.05-.36-.05-.82-.11-1.08-.46-.15-.21-.2-.48-.15-.79.05-.33.26-.87,1.04-.87.2,0,.39.03.58.06.09.01.17.03.25.04,3.8.46,6.87,3.76,6.84,7.37,0,.02,0,.03,0,.05,0,.07,0,.16,0,.27.01.37.04,1.14-.8,1.27Zm-2.4-1.77c.03.85-.28,1.31-.92,1.39-.04,0-.08,0-.12,0h0c-.53,0-.94-.43-1-1.04-.13-1.31-.79-2.02-2.07-2.22-.35-.06-.74-.16-.94-.5-.14-.23-.15-.51-.04-.83.24-.69.92-.71,1.24-.72.86-.02,1.81.43,2.6,1.23.79.8,1.25,1.8,1.24,2.68Zm6.29,2.14c-.18.18-.42.28-.73.28h-.03c-.99-.02-1-.94-1.01-1.38,0-.12,0-.24-.02-.34-.72-5.66-3.3-8.32-8.91-9.18-.08-.01-.18-.02-.28-.03-.42-.03-1.29-.09-1.24-1,.02-.39.2-1.04,1.12-1.04.1,0,.21,0,.3.01.08,0,.15.01.2.01.04,0,.06,0,.07,0,.02,0,.05,0,.07,0,5.78.2,10.79,5.44,10.72,11.23,0,.08,0,.17,0,.26.02.38.04.86-.27,1.18Z"/>
</svg>