<?xml version="1.0" encoding="UTF-8"?>
<svg id="Calque_1" data-name="Calque 1" xmlns="http://www.w3.org/2000/svg" viewBox="0 0 40.23 40.23">
  <defs>
    <style>
      .cls-1 {
        fill: #fff;
        stroke-width: 0px;
      }
    </style>
  </defs>
  <path class="cls-1" d="m20.12,0h-.01C9.02,0,0,9.02,0,20.11c0,4.4,1.42,8.48,3.83,11.79l-2.51,7.47,7.73-2.47c3.18,2.11,6.97,3.32,11.06,3.32,11.09,0,20.11-9.02,20.11-20.11S31.21,0,20.12,0Zm11.7,28.4c-.49,1.37-2.41,2.51-3.95,2.84-1.05.22-2.42.4-7.04-1.51-5.91-2.45-9.72-8.46-10.01-8.84-.28-.39-2.39-3.18-2.39-6.07s1.47-4.29,2.06-4.9c.49-.5,1.29-.72,2.06-.72.25,0,.47.01.67.02.59.03.89.06,1.28.99.49,1.17,1.67,4.06,1.81,4.35.14.3.29.7.09,1.09-.19.4-.35.58-.65.92s-.58.6-.87.97c-.27.32-.58.66-.24,1.25.34.58,1.52,2.51,3.26,4.06,2.25,2,4.07,2.64,4.72,2.91.49.2,1.06.15,1.42-.22.45-.49,1.01-1.29,1.57-2.08.4-.57.91-.64,1.44-.44.54.19,3.42,1.61,4.01,1.9.59.3.98.44,1.12.69.14.25.14,1.42-.34,2.79Z"/>
</svg>